<?xml version="1.0" encoding="UTF-8" standalone="no"?>
<!DOCTYPE svg PUBLIC "-//W3C//DTD SVG 1.1//EN" "http://www.w3.org/Graphics/SVG/1.1/DTD/svg11.dtd">
<svg width="100%" height="100%" viewBox="0 0 512 512" version="1.1" xmlns="http://www.w3.org/2000/svg" xmlns:xlink="http://www.w3.org/1999/xlink" xml:space="preserve" xmlns:serif="http://www.serif.com/" style="fill-rule:evenodd;clip-rule:evenodd;stroke-linecap:round;stroke-linejoin:round;stroke-miterlimit:1.5;">
    <g transform="matrix(1.219252,0,0,1.219252,-54.927864,-38.637627)">
        <path d="M162.363,129.678C172.257,92.619 208.424,64.497 250.524,64.497C292.623,64.497 328.79,92.619 338.684,129.678C376.986,127.636 414.908,153.342 427.918,193.381C440.927,233.421 425.357,276.507 393.169,297.369C406.948,333.165 394.219,377.175 360.159,401.921C326.1,426.667 280.31,425.173 250.524,401.007C220.737,425.173 174.947,426.667 140.888,401.921C106.828,377.175 94.099,333.165 107.878,297.369C75.69,276.507 60.12,233.421 73.129,193.381C86.139,153.342 124.061,127.636 162.363,129.678Z" style="fill:rgb(100,102,241);stroke:black;stroke-width:0.17px;"/>
    </g>
    <g id="レイヤー1">
    </g>
    <g transform="matrix(1.812029,0,0,1.812029,-162.531288,-213.344992)">
        <circle cx="183" cy="316" r="16" style="fill:rgb(235,235,235);stroke:black;stroke-width:0.11px;"/>
    </g>
    <g transform="matrix(0.70178,0,0,0.70178,76.554223,92.934296)">
        <path d="M232.625,110.145C235.603,99.704 245.143,92.505 256,92.505C266.857,92.505 276.397,99.704 279.375,110.145L302.511,191.243C303.75,195.585 306.075,199.54 309.268,202.732C312.46,205.925 316.415,208.25 320.757,209.489L401.855,232.625C412.296,235.603 419.495,245.143 419.495,256C419.495,266.857 412.296,276.397 401.855,279.375L320.757,302.511C316.415,303.75 312.46,306.075 309.268,309.268C306.075,312.46 303.75,316.415 302.511,320.757L279.375,401.855C276.397,412.296 266.857,419.495 256,419.495C245.143,419.495 235.603,412.296 232.625,401.855L209.489,320.757C208.25,316.415 205.925,312.46 202.732,309.268C199.54,306.075 195.585,303.75 191.243,302.511L110.145,279.375C99.704,276.397 92.505,266.857 92.505,256C92.505,245.143 99.704,235.603 110.145,232.625L191.243,209.489C195.585,208.25 199.54,205.925 202.732,202.732C205.925,199.54 208.25,195.585 209.489,191.243L232.625,110.145Z" style="fill:white;"/>
    </g>
    <g transform="matrix(0.820915,0,0,0.820915,78.684341,18.949743)">
        <path d="M303.907,208.093L288,208.093C279.118,208.093 271.907,200.882 271.907,192C271.907,183.118 279.118,175.907 288,175.907L303.907,175.907L303.907,160C303.907,151.118 311.118,143.907 320,143.907C328.882,143.907 336.093,151.118 336.093,160L336.093,175.907L352,175.907C360.882,175.907 368.093,183.118 368.093,192C368.093,200.882 360.882,208.093 352,208.093L336.093,208.093L336.093,224C336.093,232.882 328.882,240.093 320,240.093C311.118,240.093 303.907,232.882 303.907,224L303.907,208.093Z" style="fill:white;"/>
    </g>
</svg>
